# xmcd
#
# Track frame offsets:
#  150
#  12633
#  23702
#  35016
#  48461
#  59781
#  71769
#  84719
#  95439
#  107045
#  116743
#  127540
#
# Disc length: 1854 seconds
#
# Revision: 0
# Processed by: cddbd v1.5.1PL0 Copyright (c) Steve Scherf et al.
# Submitted via: Collectorz.com_Music_Collector 6.9
#
DISCID=a6073c0c
DTITLE=Pierce, Webb - Sands Of Gold
DYEAR=1900
DGENRE=Classic Country
TTITLE0=Please Help me, I'm Falling
TTITLE1=Sands Of Gold
TTITLE2=Blue Mood
TTITLE3=Don't Let Me Cross Over
TTITLE4=Roses Are Red (My Love)
TTITLE5=My Love For You
TTITLE6=Detroit City
TTITLE7=Those Wonderful Years
TTITLE8=Nobody's Darlin' But Mine
TTITLE9=If The Back Door Could Talk
TTITLE10=Trye Love Never Dies
TTITLE11=The Smile Of A Clown
EXTD=
EXTT0=
EXTT1=
EXTT2=
EXTT3=
EXTT4=
EXTT5=
EXTT6=
EXTT7=
EXTT8=
EXTT9=
EXTT10=
EXTT11=
PLAYORDER=
